<svg xmlns="http://www.w3.org/2000/svg" id="Capa_2" data-name="Capa 2" viewBox="0 0 125.08 27.44"><defs><style>      .cls-1 {        fill: #fff;      }    </style></defs><g id="Capa_1-2" data-name="Capa 1"><g><g><path class="cls-1" d="m13.72,0C6.14,0,0,6.14,0,13.72s6.14,13.72,13.72,13.72V0Z"></path><circle class="cls-1" cx="20.58" cy="5.14" r="5.14" transform="translate(15.38 25.71) rotate(-89.85)"></circle><circle class="cls-1" cx="20.58" cy="22.29" r="5.14" transform="translate(-1.76 42.81) rotate(-89.85)"></circle></g><g><path class="cls-1" d="m37.23,13.68c0-6.88,3.05-10.8,9.39-10.8s8.25,3.51,8.48,8.43h-6.52c-.14-1.87-.68-2.87-1.96-2.87-1.69,0-2.28,1.41-2.28,5.24s.59,5.2,2.28,5.2c1.28,0,1.82-1,1.96-2.87h6.52c-.23,4.92-2.1,8.43-8.48,8.43s-9.39-3.83-9.39-10.76Z"></path><path class="cls-1" d="m57.29,3.34h6.25v2.78c1.14-2.23,2.74-3.24,4.65-3.24.59,0,1.28.09,1.73.32v5.65c-.78-.23-1.69-.36-2.42-.36-1.23,0-2.46.36-3.19,1.05v14.45h-7.02V3.34Z"></path><path class="cls-1" d="m70.51,13.68c0-7.07,3.19-10.8,9.12-10.8s8.8,3.74,8.8,10.8v.96h-11.03c0,3.42.68,4.74,2.46,4.74,1.32,0,1.91-.78,2.05-2.42h6.43c-.68,5.61-3.97,7.48-8.34,7.48-5.97,0-9.48-3.56-9.48-10.76Zm11.26-2.19c-.14-2.74-.73-3.83-2.19-3.83-1.55,0-2.1,1.09-2.14,3.83h4.33Z"></path><path class="cls-1" d="m89.48,18.88c0-3.69,2.69-6.02,7.25-6.56l3.01-.36v-1.73c0-1.6-.32-2.28-1.5-2.28-.96,0-1.55.46-1.6,2.69h-6.38c.05-5.88,3.19-7.75,8.53-7.75,4.7,0,7.89,2.01,7.89,7.34v7.89c0,.73.23,1.14.87,1.14.41,0,.91-.05,1.14-.23v4.65c-.91.5-2.1.77-3.65.77-2.69,0-3.92-1.05-3.92-2.87v-.41c-1.05,2.1-3.01,3.28-5.79,3.28-3.83,0-5.84-2.19-5.84-5.56Zm10.26.09v-3.51l-1.37.23c-1.32.23-2.1,1.05-2.1,2.32s.64,1.82,1.69,1.82c.78,0,1.41-.32,1.78-.87Z"></path><path class="cls-1" d="m114.87,16.21h-4.92v-5.11h4.92v-6.02h5.29v6.02h4.92v5.11h-4.92v6.02h-5.29v-6.02Z"></path></g></g></g></svg>